<svg id="svg" version="1.1" xmlns="http://www.w3.org/2000/svg" xmlns:xlink="http://www.w3.org/1999/xlink" width="400" height="400" viewBox="0, 0, 400,400"><g id="svgg"><path id="path0" d="M114.800 132.632 C 101.915 134.061,92.167 138.106,84.753 145.100 C 81.979 147.717,78.233 152.931,77.209 155.600 C 76.913 156.370,76.521 157.171,76.336 157.380 C 76.151 157.589,76.000 158.163,76.000 158.656 C 76.000 159.149,75.840 159.652,75.644 159.773 C 74.272 160.621,73.619 176.599,74.794 180.600 C 74.987 181.260,75.361 182.610,75.625 183.600 C 78.423 194.116,87.162 202.926,99.400 207.568 C 100.720 208.068,102.160 208.625,102.600 208.806 C 103.040 208.986,103.850 209.250,104.400 209.394 C 104.950 209.537,106.030 209.834,106.800 210.054 C 108.452 210.525,110.777 211.105,113.000 211.600 C 113.880 211.796,115.320 212.128,116.200 212.339 C 118.403 212.865,121.487 213.577,123.400 214.000 C 130.395 215.546,132.769 216.202,135.880 217.447 C 145.196 221.174,149.085 227.475,147.603 236.443 C 145.961 246.386,138.868 250.932,125.000 250.931 C 109.577 250.930,98.374 245.570,88.775 233.600 C 85.469 229.477,85.957 229.216,77.600 239.550 C 76.830 240.502,75.056 242.658,73.659 244.341 C 69.502 249.344,69.657 248.851,71.406 251.508 C 78.735 262.643,93.653 270.619,112.800 273.639 C 116.720 274.258,133.832 274.253,137.000 273.633 C 144.841 272.098,145.478 271.931,149.800 270.290 C 160.186 266.347,167.599 259.570,171.555 250.400 C 173.647 245.551,174.210 243.332,174.848 237.400 C 175.277 233.416,174.990 224.691,174.349 222.200 C 172.807 216.213,172.962 216.659,171.045 212.724 C 167.236 204.908,161.158 199.546,151.400 195.399 C 148.503 194.167,148.215 194.057,146.600 193.571 C 145.720 193.306,144.640 192.951,144.200 192.782 C 143.760 192.613,142.500 192.266,141.400 192.012 C 140.300 191.758,138.770 191.389,138.000 191.194 C 137.230 190.998,136.060 190.730,135.400 190.599 C 133.900 190.301,130.761 189.649,128.400 189.146 C 127.410 188.936,125.790 188.600,124.800 188.400 C 123.810 188.200,122.145 187.848,121.100 187.618 C 120.055 187.388,118.435 187.042,117.500 186.848 C 105.165 184.295,98.776 177.355,100.419 168.294 C 101.127 164.390,104.531 159.200,106.383 159.200 C 106.612 159.200,106.800 159.062,106.800 158.894 C 106.800 158.219,111.220 156.611,115.400 155.767 C 125.463 153.734,137.033 155.780,147.000 161.354 C 148.402 162.139,152.165 165.064,153.170 166.151 C 155.148 168.291,156.697 167.627,159.602 163.391 C 160.353 162.296,161.515 160.671,162.184 159.780 C 162.853 158.888,163.715 157.718,164.100 157.180 C 164.485 156.641,165.894 154.721,167.231 152.914 C 170.114 149.018,170.104 148.897,166.689 145.961 C 165.320 144.784,164.110 143.713,164.000 143.580 C 163.396 142.854,158.547 139.929,155.600 138.514 C 150.138 135.890,146.666 134.827,138.800 133.370 C 135.555 132.769,118.341 132.240,114.800 132.632 M201.467 134.667 C 201.320 134.813,201.200 165.863,201.200 203.667 L 201.200 272.400 214.598 272.400 L 227.995 272.400 228.098 240.900 L 228.200 209.400 259.500 209.298 L 290.800 209.195 290.800 240.798 L 290.800 272.400 304.200 272.400 L 317.600 272.400 317.600 203.400 L 317.600 134.400 304.203 134.400 L 290.806 134.400 290.703 160.300 L 290.600 186.200 260.200 186.310 C 243.480 186.371,229.395 186.322,228.900 186.203 L 228.000 185.985 228.000 160.192 L 228.000 134.400 214.867 134.400 C 207.643 134.400,201.613 134.520,201.467 134.667 " stroke="none" fill="#1d1d1d" fill-rule="evenodd"></path><path id="path1" d="M177.100 0.270 C 173.911 0.358,171.600 0.586,171.600 0.811 C 171.600 1.025,171.060 1.200,170.400 1.200 C 169.740 1.200,169.200 1.380,169.200 1.600 C 169.200 1.820,168.221 2.000,167.024 2.000 C 165.827 2.000,164.736 2.180,164.600 2.400 C 164.464 2.620,163.463 2.800,162.376 2.800 C 161.289 2.800,160.400 2.980,160.400 3.200 C 160.400 3.420,159.410 3.600,158.200 3.600 C 156.990 3.600,156.000 3.780,156.000 4.000 C 156.000 4.220,155.280 4.400,154.400 4.400 C 153.520 4.400,152.800 4.580,152.800 4.800 C 152.800 5.020,152.080 5.200,151.200 5.200 C 150.320 5.200,149.600 5.380,149.600 5.600 C 149.600 5.820,148.981 6.000,148.224 6.000 C 147.467 6.000,146.736 6.180,146.600 6.400 C 146.464 6.620,145.823 6.800,145.176 6.800 C 144.529 6.800,144.000 6.980,144.000 7.200 C 144.000 7.420,143.370 7.600,142.600 7.600 C 141.830 7.600,141.200 7.780,141.200 8.000 C 141.200 8.220,140.762 8.400,140.228 8.400 C 139.241 8.400,133.177 10.177,131.905 10.839 C 131.523 11.037,130.944 11.200,130.618 11.200 C 130.291 11.200,129.383 11.560,128.600 12.000 C 127.817 12.440,126.821 12.800,126.388 12.800 C 125.955 12.800,125.600 12.980,125.600 13.200 C 125.600 13.420,125.240 13.600,124.800 13.600 C 124.360 13.600,124.000 13.780,124.000 14.000 C 124.000 14.220,123.460 14.400,122.800 14.400 C 122.140 14.400,121.600 14.580,121.600 14.800 C 121.600 15.020,121.240 15.200,120.800 15.200 C 120.360 15.200,120.000 15.380,120.000 15.600 C 120.000 15.820,119.640 16.000,119.200 16.000 C 118.760 16.000,118.400 16.180,118.400 16.400 C 118.400 16.620,118.040 16.800,117.600 16.800 C 117.160 16.800,116.800 16.980,116.800 17.200 C 116.800 17.420,116.445 17.600,116.012 17.600 C 115.579 17.600,114.583 17.960,113.800 18.400 C 113.017 18.840,112.111 19.200,111.788 19.200 C 111.465 19.200,111.200 19.380,111.200 19.600 C 111.200 19.820,110.930 20.000,110.600 20.000 C 110.270 20.000,110.000 20.180,110.000 20.400 C 110.000 20.620,109.655 20.800,109.233 20.800 C 108.812 20.800,108.407 20.935,108.333 21.100 C 108.166 21.476,106.036 22.775,105.100 23.071 C 104.715 23.193,104.400 23.452,104.400 23.647 C 104.400 23.841,104.040 24.000,103.600 24.000 C 103.160 24.000,102.800 24.180,102.800 24.400 C 102.800 24.620,102.547 24.800,102.237 24.800 C 101.564 24.800,97.457 26.863,97.267 27.296 C 97.193 27.463,96.956 27.600,96.739 27.600 C 96.522 27.600,95.559 28.140,94.600 28.800 C 93.641 29.460,92.703 30.000,92.516 30.000 C 92.329 30.000,91.917 30.360,91.600 30.800 C 91.283 31.240,90.743 31.600,90.400 31.600 C 90.057 31.600,89.517 31.960,89.200 32.400 C 88.883 32.840,88.343 33.200,88.000 33.200 C 87.657 33.200,87.117 33.560,86.800 34.000 C 86.483 34.440,85.943 34.800,85.600 34.800 C 85.257 34.800,84.717 35.160,84.400 35.600 C 84.083 36.040,83.638 36.400,83.412 36.401 C 83.185 36.401,82.370 36.941,81.600 37.600 C 80.830 38.259,80.047 38.799,79.860 38.799 C 79.674 38.800,79.017 39.340,78.400 40.000 C 77.783 40.660,77.164 41.200,77.023 41.200 C 76.752 41.200,76.352 41.514,74.349 43.300 C 73.671 43.905,72.958 44.400,72.766 44.400 C 72.574 44.400,71.427 45.390,70.217 46.600 C 69.007 47.810,67.843 48.800,67.629 48.800 C 67.314 48.800,64.651 51.389,58.200 57.965 C 57.980 58.189,55.775 60.353,53.300 62.774 C 50.825 65.194,48.800 67.336,48.800 67.534 C 48.800 67.731,47.810 68.923,46.600 70.182 C 45.390 71.442,44.400 72.617,44.400 72.794 C 44.400 72.971,43.859 73.719,43.199 74.458 C 41.469 76.390,41.200 76.736,41.200 77.023 C 41.200 77.164,40.660 77.783,40.000 78.400 C 39.340 79.017,38.800 79.720,38.800 79.964 C 38.800 80.208,38.260 80.972,37.600 81.663 C 36.940 82.354,36.400 83.122,36.400 83.371 C 36.400 83.620,36.040 84.083,35.600 84.400 C 35.160 84.717,34.800 85.257,34.800 85.600 C 34.800 85.943,34.440 86.483,34.000 86.800 C 33.560 87.117,33.200 87.657,33.200 88.000 C 33.200 88.343,32.840 88.883,32.400 89.200 C 31.960 89.517,31.600 90.057,31.600 90.400 C 31.600 90.743,31.240 91.283,30.800 91.600 C 30.360 91.917,30.000 92.329,30.000 92.516 C 30.000 92.703,29.460 93.641,28.800 94.600 C 28.140 95.559,27.600 96.537,27.600 96.772 C 27.600 97.007,27.420 97.200,27.200 97.200 C 26.980 97.200,26.800 97.560,26.800 98.000 C 26.800 98.440,26.653 98.800,26.474 98.800 C 26.126 98.800,24.800 101.358,24.800 102.030 C 24.800 102.252,24.440 102.820,24.000 103.292 C 23.560 103.764,23.200 104.387,23.200 104.675 C 23.200 104.964,23.020 105.200,22.800 105.200 C 22.580 105.200,22.400 105.560,22.400 106.000 C 22.400 106.440,22.220 106.800,22.000 106.800 C 21.780 106.800,21.600 107.160,21.600 107.600 C 21.600 108.040,21.420 108.400,21.200 108.400 C 20.980 108.400,20.800 108.745,20.800 109.167 C 20.800 109.588,20.664 109.993,20.498 110.067 C 20.332 110.140,19.593 111.460,18.856 113.000 C 18.119 114.540,17.355 116.113,17.158 116.495 C 16.961 116.877,16.800 117.462,16.800 117.795 C 16.800 118.128,16.620 118.400,16.400 118.400 C 16.180 118.400,16.000 118.760,16.000 119.200 C 16.000 119.640,15.820 120.000,15.600 120.000 C 15.380 120.000,15.200 120.360,15.200 120.800 C 15.200 121.240,15.020 121.600,14.800 121.600 C 14.580 121.600,14.400 122.140,14.400 122.800 C 14.400 123.460,14.220 124.000,14.000 124.000 C 13.780 124.000,13.600 124.272,13.600 124.605 C 13.600 124.938,13.392 125.613,13.138 126.105 C 12.145 128.024,12.000 128.415,12.000 129.161 C 12.000 129.586,11.860 129.993,11.688 130.067 C 11.245 130.256,8.400 139.040,8.400 140.220 C 8.400 140.759,8.220 141.200,8.000 141.200 C 7.780 141.200,7.600 141.830,7.600 142.600 C 7.600 143.370,7.420 144.000,7.200 144.000 C 6.980 144.000,6.800 144.529,6.800 145.176 C 6.800 145.823,6.620 146.464,6.400 146.600 C 6.180 146.736,6.000 147.467,6.000 148.224 C 6.000 148.981,5.820 149.600,5.600 149.600 C 5.380 149.600,5.200 150.309,5.200 151.176 C 5.200 152.043,5.020 152.864,4.800 153.000 C 4.580 153.136,4.400 154.047,4.400 155.024 C 4.400 156.001,4.220 156.800,4.000 156.800 C 3.780 156.800,3.600 157.509,3.600 158.376 C 3.600 159.243,3.420 160.064,3.200 160.200 C 2.980 160.336,2.800 161.337,2.800 162.424 C 2.800 163.511,2.620 164.400,2.400 164.400 C 2.180 164.400,2.000 165.379,2.000 166.576 C 2.000 167.773,1.820 168.864,1.600 169.000 C 1.380 169.136,1.200 170.461,1.200 171.944 C 1.200 173.567,1.001 174.839,0.700 175.140 C -0.031 175.871,-0.031 224.857,0.700 225.100 C 1.035 225.212,1.200 226.171,1.200 228.010 C 1.200 229.518,1.380 230.864,1.600 231.000 C 1.820 231.136,2.000 232.227,2.000 233.424 C 2.000 234.621,2.180 235.600,2.400 235.600 C 2.620 235.600,2.800 236.489,2.800 237.576 C 2.800 238.663,2.980 239.664,3.200 239.800 C 3.420 239.936,3.600 240.757,3.600 241.624 C 3.600 242.491,3.780 243.200,4.000 243.200 C 4.220 243.200,4.400 243.999,4.400 244.976 C 4.400 245.953,4.580 246.864,4.800 247.000 C 5.020 247.136,5.200 247.957,5.200 248.824 C 5.200 249.691,5.380 250.400,5.600 250.400 C 5.820 250.400,6.000 251.019,6.000 251.776 C 6.000 252.533,6.180 253.264,6.400 253.400 C 6.620 253.536,6.800 254.177,6.800 254.824 C 6.800 255.471,6.980 256.000,7.200 256.000 C 7.420 256.000,7.600 256.630,7.600 257.400 C 7.600 258.170,7.780 258.800,8.000 258.800 C 8.220 258.800,8.400 259.238,8.400 259.772 C 8.400 260.759,10.177 266.823,10.839 268.095 C 11.037 268.477,11.200 269.062,11.200 269.395 C 11.200 269.728,11.380 270.000,11.600 270.000 C 11.820 270.000,12.000 270.362,12.000 270.805 C 12.000 271.248,12.180 271.968,12.400 272.405 C 12.620 272.842,12.980 273.558,13.200 273.995 C 13.420 274.432,13.600 275.062,13.600 275.395 C 13.600 275.728,13.780 276.000,14.000 276.000 C 14.220 276.000,14.400 276.540,14.400 277.200 C 14.400 277.860,14.580 278.400,14.800 278.400 C 15.020 278.400,15.200 278.760,15.200 279.200 C 15.200 279.640,15.380 280.000,15.600 280.000 C 15.820 280.000,16.000 280.360,16.000 280.800 C 16.000 281.240,16.180 281.600,16.400 281.600 C 16.620 281.600,16.800 281.872,16.800 282.205 C 16.800 282.538,16.961 283.123,17.158 283.505 C 17.355 283.887,18.119 285.460,18.856 287.000 C 19.593 288.540,20.332 289.860,20.498 289.933 C 20.664 290.007,20.800 290.412,20.800 290.833 C 20.800 291.255,20.980 291.600,21.200 291.600 C 21.420 291.600,21.600 291.960,21.600 292.400 C 21.600 292.840,21.780 293.200,22.000 293.200 C 22.220 293.200,22.400 293.560,22.400 294.000 C 22.400 294.440,22.580 294.800,22.800 294.800 C 23.020 294.800,23.200 295.036,23.200 295.325 C 23.200 295.613,23.560 296.236,24.000 296.708 C 24.440 297.180,24.800 297.775,24.800 298.029 C 24.800 298.611,26.895 302.553,27.300 302.733 C 27.465 302.807,27.600 303.044,27.600 303.261 C 27.600 303.478,28.140 304.441,28.800 305.400 C 29.460 306.359,30.000 307.297,30.000 307.484 C 30.000 307.671,30.360 308.083,30.800 308.400 C 31.240 308.717,31.600 309.257,31.600 309.600 C 31.600 309.943,31.960 310.483,32.400 310.800 C 32.840 311.117,33.200 311.657,33.200 312.000 C 33.200 312.343,33.560 312.883,34.000 313.200 C 34.440 313.517,34.800 314.057,34.800 314.400 C 34.800 314.743,35.160 315.283,35.600 315.600 C 36.040 315.917,36.400 316.380,36.400 316.629 C 36.400 316.878,36.940 317.646,37.600 318.337 C 38.260 319.028,38.800 319.792,38.800 320.036 C 38.800 320.280,39.340 320.983,40.000 321.600 C 40.660 322.217,41.200 322.836,41.200 322.977 C 41.200 323.288,41.783 324.006,43.500 325.808 C 44.215 326.559,44.800 327.358,44.800 327.585 C 44.800 327.811,45.700 328.915,46.800 330.039 C 47.900 331.162,48.800 332.249,48.800 332.453 C 48.800 332.658,50.825 334.806,53.300 337.226 C 55.775 339.647,57.980 341.811,58.200 342.035 C 64.651 348.611,67.314 351.200,67.629 351.200 C 67.843 351.200,69.007 352.190,70.217 353.400 C 71.427 354.610,72.574 355.600,72.766 355.600 C 72.958 355.600,73.671 356.095,74.349 356.700 C 76.352 358.486,76.752 358.800,77.023 358.800 C 77.164 358.800,77.783 359.340,78.400 360.000 C 79.017 360.660,79.674 361.200,79.860 361.201 C 80.047 361.201,80.830 361.741,81.600 362.400 C 82.370 363.059,83.185 363.599,83.412 363.599 C 83.638 363.600,84.083 363.960,84.400 364.400 C 84.717 364.840,85.257 365.200,85.600 365.200 C 85.943 365.200,86.483 365.560,86.800 366.000 C 87.117 366.440,87.657 366.800,88.000 366.800 C 88.343 366.800,88.883 367.160,89.200 367.600 C 89.517 368.040,90.057 368.400,90.400 368.400 C 90.743 368.400,91.283 368.760,91.600 369.200 C 91.917 369.640,92.329 370.000,92.516 370.000 C 92.703 370.000,93.641 370.540,94.600 371.200 C 95.559 371.860,96.522 372.400,96.739 372.400 C 96.956 372.400,97.193 372.537,97.267 372.704 C 97.457 373.137,101.564 375.200,102.237 375.200 C 102.547 375.200,102.800 375.380,102.800 375.600 C 102.800 375.820,103.145 376.000,103.567 376.000 C 103.988 376.000,104.393 376.135,104.467 376.300 C 104.634 376.676,106.764 377.975,107.700 378.271 C 108.085 378.393,108.400 378.652,108.400 378.847 C 108.400 379.041,108.745 379.200,109.167 379.200 C 109.588 379.200,109.993 379.335,110.067 379.500 C 110.287 379.995,115.254 382.400,116.056 382.400 C 116.465 382.400,116.800 382.580,116.800 382.800 C 116.800 383.020,117.160 383.200,117.600 383.200 C 118.040 383.200,118.400 383.380,118.400 383.600 C 118.400 383.820,118.760 384.000,119.200 384.000 C 119.640 384.000,120.000 384.180,120.000 384.400 C 120.000 384.620,120.360 384.800,120.800 384.800 C 121.240 384.800,121.600 384.980,121.600 385.200 C 121.600 385.420,122.140 385.600,122.800 385.600 C 123.460 385.600,124.000 385.780,124.000 386.000 C 124.000 386.220,124.360 386.400,124.800 386.400 C 125.240 386.400,125.600 386.580,125.600 386.800 C 125.600 387.020,126.039 387.200,126.576 387.200 C 127.113 387.200,127.664 387.380,127.800 387.600 C 127.936 387.820,128.487 388.000,129.024 388.000 C 129.561 388.000,130.000 388.180,130.000 388.400 C 130.000 388.620,130.272 388.800,130.605 388.800 C 130.938 388.800,131.523 388.963,131.905 389.161 C 133.177 389.823,139.241 391.600,140.228 391.600 C 140.762 391.600,141.200 391.780,141.200 392.000 C 141.200 392.220,141.830 392.400,142.600 392.400 C 143.370 392.400,144.000 392.580,144.000 392.800 C 144.000 393.020,144.529 393.200,145.176 393.200 C 145.823 393.200,146.464 393.380,146.600 393.600 C 146.736 393.820,147.467 394.000,148.224 394.000 C 148.981 394.000,149.600 394.180,149.600 394.400 C 149.600 394.620,150.320 394.800,151.200 394.800 C 152.080 394.800,152.800 394.980,152.800 395.200 C 152.800 395.420,153.700 395.600,154.800 395.600 C 155.900 395.600,156.800 395.780,156.800 396.000 C 156.800 396.220,157.610 396.400,158.600 396.400 C 159.590 396.400,160.400 396.580,160.400 396.800 C 160.400 397.020,161.289 397.200,162.376 397.200 C 163.463 397.200,164.464 397.380,164.600 397.600 C 164.736 397.820,165.827 398.000,167.024 398.000 C 168.221 398.000,169.200 398.180,169.200 398.400 C 169.200 398.633,170.522 398.800,172.367 398.800 C 174.544 398.800,175.585 398.956,175.700 399.300 C 175.944 400.032,224.056 400.032,224.300 399.300 C 224.415 398.956,225.456 398.800,227.633 398.800 C 229.478 398.800,230.800 398.633,230.800 398.400 C 230.800 398.180,231.779 398.000,232.976 398.000 C 234.173 398.000,235.264 397.820,235.400 397.600 C 235.536 397.380,236.537 397.200,237.624 397.200 C 238.711 397.200,239.600 397.020,239.600 396.800 C 239.600 396.580,240.410 396.400,241.400 396.400 C 242.390 396.400,243.200 396.220,243.200 396.000 C 243.200 395.780,244.100 395.600,245.200 395.600 C 246.300 395.600,247.200 395.420,247.200 395.200 C 247.200 394.980,247.920 394.800,248.800 394.800 C 249.680 394.800,250.400 394.620,250.400 394.400 C 250.400 394.180,251.019 394.000,251.776 394.000 C 252.533 394.000,253.264 393.820,253.400 393.600 C 253.536 393.380,254.177 393.200,254.824 393.200 C 255.471 393.200,256.000 393.020,256.000 392.800 C 256.000 392.580,256.630 392.400,257.400 392.400 C 258.170 392.400,258.800 392.220,258.800 392.000 C 258.800 391.780,259.241 391.600,259.780 391.600 C 260.960 391.600,269.744 388.755,269.933 388.312 C 270.007 388.140,270.491 388.000,271.010 388.000 C 271.528 388.000,272.064 387.820,272.200 387.600 C 272.336 387.380,272.887 387.200,273.424 387.200 C 273.961 387.200,274.400 387.020,274.400 386.800 C 274.400 386.580,274.760 386.400,275.200 386.400 C 275.640 386.400,276.000 386.220,276.000 386.000 C 276.000 385.780,276.540 385.600,277.200 385.600 C 277.860 385.600,278.400 385.420,278.400 385.200 C 278.400 384.980,278.760 384.800,279.200 384.800 C 279.640 384.800,280.000 384.620,280.000 384.400 C 280.000 384.180,280.360 384.000,280.800 384.000 C 281.240 384.000,281.600 383.820,281.600 383.600 C 281.600 383.380,281.960 383.200,282.400 383.200 C 282.840 383.200,283.200 383.020,283.200 382.800 C 283.200 382.580,283.535 382.400,283.944 382.400 C 284.746 382.400,289.713 379.995,289.933 379.500 C 290.007 379.335,290.412 379.200,290.833 379.200 C 291.255 379.200,291.600 379.041,291.600 378.847 C 291.600 378.652,291.915 378.393,292.300 378.271 C 293.236 377.975,295.366 376.676,295.533 376.300 C 295.607 376.135,296.012 376.000,296.433 376.000 C 296.855 376.000,297.200 375.820,297.200 375.600 C 297.200 375.380,297.453 375.200,297.763 375.200 C 298.436 375.200,302.543 373.137,302.733 372.704 C 302.807 372.537,303.044 372.400,303.261 372.400 C 303.478 372.400,304.441 371.860,305.400 371.200 C 306.359 370.540,307.297 370.000,307.484 370.000 C 307.671 370.000,308.083 369.640,308.400 369.200 C 308.717 368.760,309.257 368.400,309.600 368.400 C 309.943 368.400,310.483 368.040,310.800 367.600 C 311.117 367.160,311.657 366.800,312.000 366.800 C 312.343 366.800,312.883 366.440,313.200 366.000 C 313.517 365.560,314.057 365.200,314.400 365.200 C 314.743 365.200,315.283 364.840,315.600 364.400 C 315.917 363.960,316.380 363.600,316.629 363.600 C 316.878 363.600,317.646 363.060,318.337 362.400 C 319.028 361.740,319.792 361.200,320.036 361.200 C 320.280 361.200,320.983 360.660,321.600 360.000 C 322.217 359.340,322.836 358.800,322.977 358.800 C 323.248 358.800,323.648 358.486,325.651 356.700 C 326.329 356.095,327.042 355.600,327.234 355.600 C 327.426 355.600,328.573 354.610,329.783 353.400 C 330.993 352.190,332.157 351.200,332.371 351.200 C 332.686 351.200,335.349 348.611,341.800 342.035 C 342.020 341.811,344.225 339.647,346.700 337.226 C 349.175 334.806,351.200 332.658,351.200 332.453 C 351.200 332.249,352.100 331.162,353.200 330.039 C 354.300 328.915,355.200 327.811,355.200 327.585 C 355.200 327.358,355.785 326.559,356.500 325.808 C 358.217 324.006,358.800 323.288,358.800 322.977 C 358.800 322.836,359.340 322.217,360.000 321.600 C 360.660 320.983,361.200 320.280,361.200 320.036 C 361.200 319.792,361.740 319.028,362.400 318.337 C 363.060 317.646,363.600 316.878,363.600 316.629 C 363.600 316.380,363.960 315.917,364.400 315.600 C 364.840 315.283,365.200 314.743,365.200 314.400 C 365.200 314.057,365.560 313.517,366.000 313.200 C 366.440 312.883,366.800 312.343,366.800 312.000 C 366.800 311.657,367.160 311.117,367.600 310.800 C 368.040 310.483,368.400 309.943,368.400 309.600 C 368.400 309.257,368.760 308.717,369.200 308.400 C 369.640 308.083,370.000 307.671,370.000 307.484 C 370.000 307.297,370.540 306.359,371.200 305.400 C 371.860 304.441,372.400 303.463,372.400 303.228 C 372.400 302.993,372.580 302.800,372.800 302.800 C 373.020 302.800,373.200 302.440,373.200 302.000 C 373.200 301.560,373.347 301.200,373.526 301.200 C 373.874 301.200,375.200 298.642,375.200 297.970 C 375.200 297.748,375.560 297.180,376.000 296.708 C 376.440 296.236,376.800 295.613,376.800 295.325 C 376.800 295.036,376.980 294.800,377.200 294.800 C 377.420 294.800,377.600 294.440,377.600 294.000 C 377.600 293.560,377.780 293.200,378.000 293.200 C 378.220 293.200,378.400 292.840,378.400 292.400 C 378.400 291.960,378.580 291.600,378.800 291.600 C 379.020 291.600,379.200 291.255,379.200 290.833 C 379.200 290.412,379.335 290.007,379.500 289.933 C 379.995 289.713,382.400 284.746,382.400 283.944 C 382.400 283.535,382.580 283.200,382.800 283.200 C 383.020 283.200,383.200 282.840,383.200 282.400 C 383.200 281.960,383.380 281.600,383.600 281.600 C 383.820 281.600,384.000 281.240,384.000 280.800 C 384.000 280.360,384.180 280.000,384.400 280.000 C 384.620 280.000,384.800 279.640,384.800 279.200 C 384.800 278.760,384.980 278.400,385.200 278.400 C 385.420 278.400,385.600 277.860,385.600 277.200 C 385.600 276.540,385.780 276.000,386.000 276.000 C 386.220 276.000,386.400 275.728,386.400 275.395 C 386.400 275.062,386.580 274.432,386.800 273.995 C 387.020 273.558,387.380 272.842,387.600 272.405 C 387.820 271.968,388.000 271.263,388.000 270.839 C 388.000 270.414,388.140 270.007,388.312 269.933 C 388.755 269.744,391.600 260.960,391.600 259.780 C 391.600 259.241,391.780 258.800,392.000 258.800 C 392.220 258.800,392.400 258.170,392.400 257.400 C 392.400 256.630,392.580 256.000,392.800 256.000 C 393.020 256.000,393.200 255.471,393.200 254.824 C 393.200 254.177,393.380 253.536,393.600 253.400 C 393.820 253.264,394.000 252.533,394.000 251.776 C 394.000 251.019,394.180 250.400,394.400 250.400 C 394.620 250.400,394.800 249.691,394.800 248.824 C 394.800 247.957,394.980 247.136,395.200 247.000 C 395.420 246.864,395.600 245.953,395.600 244.976 C 395.600 243.999,395.780 243.200,396.000 243.200 C 396.220 243.200,396.400 242.491,396.400 241.624 C 396.400 240.757,396.580 239.936,396.800 239.800 C 397.020 239.664,397.200 238.663,397.200 237.576 C 397.200 236.489,397.380 235.600,397.600 235.600 C 397.820 235.600,398.000 234.621,398.000 233.424 C 398.000 232.227,398.180 231.136,398.400 231.000 C 398.620 230.864,398.800 229.539,398.800 228.056 C 398.800 226.433,398.999 225.161,399.300 224.860 C 399.689 224.471,399.800 218.897,399.800 199.713 C 399.800 180.352,399.693 175.031,399.300 174.900 C 398.965 174.788,398.800 173.829,398.800 171.990 C 398.800 170.482,398.620 169.136,398.400 169.000 C 398.180 168.864,398.000 167.773,398.000 166.576 C 398.000 165.379,397.820 164.400,397.600 164.400 C 397.380 164.400,397.200 163.511,397.200 162.424 C 397.200 161.337,397.020 160.336,396.800 160.200 C 396.580 160.064,396.400 159.243,396.400 158.376 C 396.400 157.509,396.220 156.800,396.000 156.800 C 395.780 156.800,395.600 156.001,395.600 155.024 C 395.600 154.047,395.420 153.136,395.200 153.000 C 394.980 152.864,394.800 152.043,394.800 151.176 C 394.800 150.309,394.620 149.600,394.400 149.600 C 394.180 149.600,394.000 149.071,394.000 148.424 C 394.000 147.777,393.820 147.136,393.600 147.000 C 393.380 146.864,393.200 146.133,393.200 145.376 C 393.200 144.619,393.020 144.000,392.800 144.000 C 392.580 144.000,392.400 143.370,392.400 142.600 C 392.400 141.830,392.220 141.200,392.000 141.200 C 391.780 141.200,391.600 140.759,391.600 140.220 C 391.600 139.040,388.755 130.256,388.312 130.067 C 388.140 129.993,388.000 129.586,388.000 129.161 C 388.000 128.737,387.820 128.032,387.600 127.595 C 387.380 127.158,387.020 126.442,386.800 126.005 C 386.580 125.568,386.400 124.938,386.400 124.605 C 386.400 124.272,386.220 124.000,386.000 124.000 C 385.780 124.000,385.600 123.460,385.600 122.800 C 385.600 122.140,385.420 121.600,385.200 121.600 C 384.980 121.600,384.800 121.240,384.800 120.800 C 384.800 120.360,384.620 120.000,384.400 120.000 C 384.180 120.000,384.000 119.640,384.000 119.200 C 384.000 118.760,383.820 118.400,383.600 118.400 C 383.380 118.400,383.200 118.128,383.200 117.795 C 383.200 117.462,383.039 116.877,382.842 116.495 C 382.645 116.113,381.881 114.540,381.144 113.000 C 380.407 111.460,379.668 110.140,379.502 110.067 C 379.336 109.993,379.200 109.588,379.200 109.167 C 379.200 108.745,379.020 108.400,378.800 108.400 C 378.580 108.400,378.400 108.040,378.400 107.600 C 378.400 107.160,378.220 106.800,378.000 106.800 C 377.780 106.800,377.600 106.480,377.600 106.088 C 377.600 105.697,377.240 105.117,376.800 104.800 C 376.360 104.483,376.000 103.903,376.000 103.512 C 376.000 103.120,375.820 102.800,375.600 102.800 C 375.380 102.800,375.200 102.536,375.200 102.214 C 375.200 101.401,373.924 98.800,373.526 98.800 C 373.347 98.800,373.200 98.440,373.200 98.000 C 373.200 97.560,373.020 97.200,372.800 97.200 C 372.580 97.200,372.400 97.007,372.400 96.772 C 372.400 96.537,371.860 95.559,371.200 94.600 C 370.540 93.641,370.000 92.703,370.000 92.516 C 370.000 92.329,369.640 91.917,369.200 91.600 C 368.760 91.283,368.400 90.743,368.400 90.400 C 368.400 90.057,368.040 89.517,367.600 89.200 C 367.160 88.883,366.800 88.343,366.800 88.000 C 366.800 87.657,366.440 87.117,366.000 86.800 C 365.560 86.483,365.200 85.943,365.200 85.600 C 365.200 85.257,364.840 84.717,364.400 84.400 C 363.960 84.083,363.600 83.620,363.600 83.371 C 363.600 83.122,363.060 82.354,362.400 81.663 C 361.740 80.972,361.200 80.208,361.200 79.964 C 361.200 79.720,360.660 79.017,360.000 78.400 C 359.340 77.783,358.800 77.164,358.800 77.023 C 358.800 76.736,358.531 76.390,356.801 74.458 C 356.141 73.719,355.600 72.958,355.600 72.766 C 355.600 72.574,354.610 71.427,353.400 70.217 C 352.190 69.007,351.200 67.828,351.200 67.596 C 351.200 67.364,349.175 65.194,346.700 62.774 C 344.225 60.353,342.020 58.189,341.800 57.965 C 335.349 51.389,332.686 48.800,332.371 48.800 C 332.157 48.800,330.993 47.810,329.783 46.600 C 328.573 45.390,327.426 44.400,327.234 44.400 C 327.042 44.400,326.329 43.905,325.651 43.300 C 323.648 41.514,323.248 41.200,322.977 41.200 C 322.836 41.200,322.217 40.660,321.600 40.000 C 320.983 39.340,320.280 38.800,320.036 38.800 C 319.792 38.800,319.028 38.260,318.337 37.600 C 317.646 36.940,316.878 36.400,316.629 36.400 C 316.380 36.400,315.917 36.040,315.600 35.600 C 315.283 35.160,314.743 34.800,314.400 34.800 C 314.057 34.800,313.517 34.440,313.200 34.000 C 312.883 33.560,312.343 33.200,312.000 33.200 C 311.657 33.200,311.117 32.840,310.800 32.400 C 310.483 31.960,309.943 31.600,309.600 31.600 C 309.257 31.600,308.717 31.240,308.400 30.800 C 308.083 30.360,307.671 30.000,307.484 30.000 C 307.297 30.000,306.359 29.460,305.400 28.800 C 304.441 28.140,303.478 27.600,303.261 27.600 C 303.044 27.600,302.807 27.463,302.733 27.296 C 302.543 26.863,298.436 24.800,297.763 24.800 C 297.453 24.800,297.200 24.620,297.200 24.400 C 297.200 24.180,296.855 24.000,296.433 24.000 C 296.012 24.000,295.607 23.865,295.533 23.700 C 295.366 23.324,293.236 22.025,292.300 21.729 C 291.915 21.607,291.600 21.348,291.600 21.153 C 291.600 20.959,291.240 20.800,290.800 20.800 C 290.360 20.800,290.000 20.620,290.000 20.400 C 290.000 20.180,289.730 20.000,289.400 20.000 C 289.070 20.000,288.800 19.820,288.800 19.600 C 288.800 19.380,288.451 19.200,288.024 19.200 C 287.597 19.200,287.136 19.020,287.000 18.800 C 286.864 18.580,286.403 18.400,285.976 18.400 C 285.549 18.400,285.200 18.220,285.200 18.000 C 285.200 17.780,284.750 17.600,284.200 17.600 C 283.650 17.600,283.200 17.420,283.200 17.200 C 283.200 16.980,282.840 16.800,282.400 16.800 C 281.960 16.800,281.600 16.620,281.600 16.400 C 281.600 16.180,281.240 16.000,280.800 16.000 C 280.360 16.000,280.000 15.820,280.000 15.600 C 280.000 15.380,279.640 15.200,279.200 15.200 C 278.760 15.200,278.400 15.020,278.400 14.800 C 278.400 14.580,277.860 14.400,277.200 14.400 C 276.540 14.400,276.000 14.220,276.000 14.000 C 276.000 13.780,275.640 13.600,275.200 13.600 C 274.760 13.600,274.400 13.420,274.400 13.200 C 274.400 12.980,274.057 12.800,273.638 12.800 C 273.219 12.800,272.184 12.459,271.338 12.043 C 269.212 10.996,260.976 8.400,259.780 8.400 C 259.241 8.400,258.800 8.220,258.800 8.000 C 258.800 7.780,258.170 7.600,257.400 7.600 C 256.630 7.600,256.000 7.420,256.000 7.200 C 256.000 6.980,255.471 6.800,254.824 6.800 C 254.177 6.800,253.536 6.620,253.400 6.400 C 253.264 6.180,252.533 6.000,251.776 6.000 C 251.019 6.000,250.400 5.820,250.400 5.600 C 250.400 5.380,249.680 5.200,248.800 5.200 C 247.920 5.200,247.200 5.020,247.200 4.800 C 247.200 4.580,246.480 4.400,245.600 4.400 C 244.720 4.400,244.000 4.220,244.000 4.000 C 244.000 3.780,243.010 3.600,241.800 3.600 C 240.590 3.600,239.600 3.420,239.600 3.200 C 239.600 2.980,238.711 2.800,237.624 2.800 C 236.537 2.800,235.536 2.620,235.400 2.400 C 235.264 2.180,234.173 2.000,232.976 2.000 C 231.779 2.000,230.800 1.820,230.800 1.600 C 230.800 1.380,230.275 1.200,229.633 1.200 C 228.992 1.200,228.400 0.999,228.317 0.752 C 228.166 0.298,189.272 -0.068,177.100 0.270 M130.800 131.995 C 145.380 132.936,156.683 136.768,164.903 143.557 C 167.510 145.711,170.400 148.589,170.400 149.034 C 170.400 149.319,167.855 153.029,164.745 157.276 C 161.634 161.524,158.619 165.668,158.045 166.485 C 156.485 168.702,154.957 168.589,152.182 166.053 C 149.751 163.831,145.532 161.009,142.600 159.644 C 141.500 159.132,140.287 158.552,139.905 158.356 C 139.523 158.160,138.859 158.000,138.429 158.000 C 137.999 158.000,137.548 157.839,137.426 157.642 C 137.305 157.445,136.529 157.184,135.703 157.062 C 134.876 156.940,132.940 156.613,131.400 156.335 C 125.139 155.205,115.097 155.835,110.500 157.646 C 101.870 161.044,98.522 168.946,102.252 177.116 C 104.119 181.206,110.271 184.753,118.400 186.427 C 119.390 186.631,121.910 187.161,124.000 187.604 C 126.090 188.048,128.790 188.605,130.000 188.842 C 133.797 189.588,137.926 190.490,140.800 191.203 C 141.790 191.448,143.097 191.749,143.705 191.871 C 144.313 191.993,144.908 192.251,145.029 192.446 C 145.149 192.641,145.651 192.800,146.144 192.800 C 146.637 192.800,147.211 192.949,147.420 193.130 C 147.629 193.312,148.610 193.710,149.600 194.013 C 156.930 196.263,165.366 202.513,169.561 208.800 C 179.706 224.008,177.433 249.050,164.773 261.550 C 160.841 265.433,151.462 271.200,149.080 271.200 C 148.732 271.200,148.349 271.359,148.229 271.554 C 148.108 271.749,147.513 272.007,146.905 272.129 C 146.297 272.251,144.990 272.553,144.000 272.800 C 131.743 275.862,114.132 275.551,102.000 272.057 C 101.230 271.835,100.150 271.537,99.600 271.394 C 99.050 271.250,98.240 270.986,97.800 270.806 C 97.360 270.625,95.920 270.074,94.600 269.581 C 85.121 266.039,75.482 258.728,70.608 251.385 L 69.132 249.162 70.722 247.081 C 71.596 245.937,72.646 244.640,73.056 244.200 C 73.465 243.759,74.292 242.740,74.894 241.934 C 75.496 241.129,76.220 240.229,76.503 239.935 C 76.786 239.641,78.169 237.960,79.575 236.200 C 85.101 229.286,85.932 228.945,88.618 232.486 C 96.829 243.313,108.067 249.466,121.200 250.325 C 138.686 251.469,147.069 245.832,146.964 233.000 C 146.877 222.473,142.114 218.870,122.400 214.423 C 120.310 213.951,117.070 213.203,115.200 212.761 C 113.330 212.318,110.990 211.769,110.000 211.540 C 109.010 211.311,107.750 210.982,107.200 210.808 C 106.650 210.635,105.390 210.271,104.400 210.001 C 103.410 209.730,102.195 209.349,101.700 209.154 C 101.205 208.959,100.395 208.643,99.900 208.451 C 78.726 200.232,69.822 183.528,74.605 161.000 C 74.854 159.828,75.018 159.352,75.946 157.100 C 83.454 138.892,102.510 130.170,130.800 131.995 M228.703 159.700 L 228.806 185.600 259.600 185.600 L 290.394 185.600 290.497 159.700 L 290.600 133.800 304.300 133.695 L 318.000 133.589 318.000 203.195 L 318.000 272.800 304.200 272.800 L 290.400 272.800 290.400 241.198 L 290.400 209.595 259.700 209.698 L 229.000 209.800 228.800 241.200 L 228.600 272.600 214.700 272.705 L 200.800 272.810 200.800 203.200 L 200.800 133.590 214.700 133.695 L 228.600 133.800 228.703 159.700 " stroke="none" fill="#fbfbfb" fill-rule="evenodd"></path><path id="path2" d="M122.112 131.895 C 123.164 131.977,124.784 131.976,125.712 131.892 C 126.640 131.808,125.780 131.741,123.800 131.742 C 121.820 131.743,121.060 131.812,122.112 131.895 M112.200 132.400 C 110.537 132.823,112.174 132.842,114.200 132.423 C 115.545 132.145,115.609 132.092,114.600 132.093 C 113.940 132.094,112.860 132.232,112.200 132.400 M132.433 132.150 C 132.525 132.232,133.680 132.400,135.000 132.523 C 136.578 132.670,136.989 132.635,136.200 132.420 C 134.966 132.085,132.136 131.882,132.433 132.150 M107.200 133.200 C 106.408 133.454,106.367 133.520,107.000 133.520 C 107.440 133.520,108.250 133.376,108.800 133.200 C 109.592 132.946,109.633 132.880,109.000 132.880 C 108.560 132.880,107.750 133.024,107.200 133.200 M139.600 133.200 C 140.150 133.376,141.050 133.517,141.600 133.513 C 142.498 133.506,142.478 133.474,141.400 133.200 C 139.708 132.769,138.256 132.769,139.600 133.200 M104.000 134.000 C 103.176 134.264,103.141 134.326,103.800 134.354 C 104.240 134.373,104.870 134.213,105.200 134.000 C 105.901 133.547,105.414 133.547,104.000 134.000 M143.800 134.000 C 144.240 134.189,144.870 134.344,145.200 134.344 C 145.578 134.344,145.504 134.217,145.000 134.000 C 144.560 133.811,143.930 133.656,143.600 133.656 C 143.222 133.656,143.296 133.783,143.800 134.000 M200.800 133.895 C 200.800 134.063,206.965 134.200,214.500 134.200 L 228.200 134.200 228.400 160.000 L 228.600 185.800 259.600 185.804 L 290.600 185.808 259.703 185.701 L 228.806 185.595 228.703 159.698 L 228.600 133.800 214.700 133.695 C 207.055 133.637,200.800 133.727,200.800 133.895 M290.667 133.867 C 290.520 134.013,290.403 134.328,290.406 134.567 C 290.410 134.828,290.537 134.803,290.726 134.505 C 290.963 134.132,294.372 133.984,304.620 133.900 L 318.200 133.789 304.567 133.694 C 297.068 133.643,290.813 133.720,290.667 133.867 M146.800 134.741 C 147.130 134.934,147.940 135.209,148.600 135.352 C 149.368 135.518,149.584 135.484,149.200 135.259 C 148.870 135.066,148.060 134.791,147.400 134.648 C 146.632 134.482,146.416 134.516,146.800 134.741 M152.167 136.617 C 153.469 137.157,154.598 137.535,154.676 137.457 C 154.863 137.271,150.828 135.595,150.247 135.617 C 150.001 135.626,150.865 136.076,152.167 136.617 M95.600 137.000 C 95.050 137.314,94.780 137.572,95.000 137.572 C 95.220 137.572,95.850 137.314,96.400 137.000 C 96.950 136.686,97.220 136.428,97.000 136.428 C 96.780 136.428,96.150 136.686,95.600 137.000 M155.200 137.772 C 155.200 137.853,155.965 138.314,156.900 138.797 C 157.835 139.280,159.185 140.033,159.900 140.470 C 160.615 140.908,161.200 141.169,161.200 141.052 C 161.200 140.934,160.165 140.234,158.900 139.496 C 156.587 138.145,155.200 137.499,155.200 137.772 M161.600 141.349 C 161.600 141.435,162.230 141.986,163.000 142.573 C 163.770 143.160,164.398 143.497,164.395 143.320 C 164.392 143.144,163.762 142.593,162.995 142.096 C 162.228 141.599,161.600 141.263,161.600 141.349 M84.975 144.100 L 83.800 145.400 85.100 144.225 C 86.312 143.130,86.584 142.800,86.275 142.800 C 86.206 142.800,85.621 143.385,84.975 144.100 M82.175 146.900 L 81.000 148.200 82.300 147.025 C 83.512 145.930,83.784 145.600,83.475 145.600 C 83.406 145.600,82.821 146.185,82.175 146.900 M168.700 147.219 C 170.272 148.935,170.291 149.244,168.950 151.127 L 167.901 152.600 169.140 151.200 C 170.745 149.386,170.712 148.844,168.900 147.178 L 167.400 145.800 168.700 147.219 M80.027 149.300 C 78.973 150.977,77.854 153.001,78.092 152.800 C 78.691 152.293,81.178 148.400,80.903 148.400 C 80.732 148.400,80.338 148.805,80.027 149.300 M165.692 155.429 C 165.197 156.183,164.872 156.800,164.969 156.800 C 165.247 156.800,166.904 154.371,166.739 154.206 C 166.657 154.124,166.186 154.674,165.692 155.429 M115.800 156.000 L 114.600 156.305 115.800 156.313 C 116.460 156.317,117.450 156.176,118.000 156.000 L 119.000 155.680 118.000 155.687 C 117.450 155.691,116.460 155.832,115.800 156.000 M129.200 155.980 C 130.199 156.320,132.682 156.532,132.367 156.251 C 132.275 156.169,131.300 155.999,130.200 155.872 C 128.851 155.716,128.526 155.751,129.200 155.980 M134.000 156.800 C 134.330 157.013,134.960 157.178,135.400 157.166 L 136.200 157.144 135.400 156.800 C 134.204 156.286,133.205 156.286,134.000 156.800 M164.115 157.700 C 162.381 159.967,161.466 161.320,161.809 161.113 C 162.281 160.827,164.937 157.200,164.674 157.200 C 164.577 157.200,164.326 157.425,164.115 157.700 M75.067 159.067 C 74.920 159.213,74.811 159.708,74.825 160.167 C 74.849 160.933,74.882 160.923,75.234 160.042 C 75.626 159.063,75.544 158.589,75.067 159.067 M104.928 160.700 C 104.062 161.525,103.813 161.823,104.376 161.361 C 104.939 160.900,105.845 160.225,106.389 159.861 C 106.933 159.498,107.181 159.200,106.940 159.200 C 106.700 159.200,105.794 159.875,104.928 160.700 M145.400 161.007 C 145.840 161.366,146.560 161.835,147.000 162.051 L 147.800 162.444 147.000 161.793 C 146.560 161.434,145.840 160.965,145.400 160.749 L 144.600 160.356 145.400 161.007 M74.249 162.215 C 74.112 162.573,74.018 163.256,74.041 163.733 C 74.067 164.281,74.203 164.086,74.410 163.203 C 74.760 161.716,74.665 161.133,74.249 162.215 M148.000 162.525 C 148.000 162.624,148.661 163.209,149.468 163.825 C 150.276 164.441,150.811 164.741,150.656 164.491 C 150.340 163.979,148.000 162.247,148.000 162.525 M158.975 164.668 C 158.359 165.476,158.059 166.011,158.309 165.856 C 158.821 165.540,160.553 163.200,160.275 163.200 C 160.176 163.200,159.591 163.861,158.975 164.668 M152.686 166.403 C 153.614 167.370,154.435 168.080,154.512 167.980 C 154.588 167.881,153.829 167.090,152.825 166.222 L 151.000 164.644 152.686 166.403 M73.457 167.100 C 73.149 168.961,73.207 174.991,73.547 176.577 C 73.686 177.225,73.800 175.020,73.800 171.677 C 73.800 164.936,73.805 164.996,73.457 167.100 M156.856 167.213 C 156.287 167.687,156.130 168.000,156.459 168.000 C 156.761 168.000,157.232 167.640,157.507 167.200 C 158.121 166.217,158.050 166.219,156.856 167.213 M100.806 173.833 C 100.809 174.255,100.995 174.870,101.218 175.200 C 101.515 175.638,101.552 175.476,101.356 174.600 C 101.027 173.129,100.798 172.810,100.806 173.833 M74.006 180.033 C 74.009 180.565,74.189 181.270,74.406 181.600 C 74.682 182.022,74.723 181.785,74.542 180.800 C 74.225 179.075,73.998 178.749,74.006 180.033 M114.000 185.582 C 114.330 185.805,114.945 185.991,115.367 185.994 C 116.390 186.002,116.071 185.773,114.600 185.444 C 113.724 185.248,113.562 185.285,114.000 185.582 M129.233 188.947 C 129.325 189.028,130.120 189.204,131.000 189.338 C 132.115 189.507,132.358 189.471,131.800 189.219 C 131.032 188.871,128.890 188.644,129.233 188.947 M133.233 189.743 C 133.325 189.821,134.030 190.001,134.800 190.142 C 135.785 190.323,136.022 190.282,135.600 190.006 C 135.058 189.650,132.837 189.403,133.233 189.743 M136.833 190.543 C 136.925 190.621,137.630 190.801,138.400 190.942 C 139.385 191.123,139.622 191.082,139.200 190.806 C 138.658 190.450,136.437 190.203,136.833 190.543 M140.433 191.344 C 140.525 191.423,141.140 191.608,141.800 191.756 C 142.676 191.952,142.838 191.915,142.400 191.618 C 141.860 191.253,140.032 190.998,140.433 191.344 M80.330 194.700 C 80.761 195.305,81.528 196.160,82.034 196.600 C 82.540 197.040,82.251 196.545,81.392 195.500 C 79.673 193.408,79.103 192.979,80.330 194.700 M154.400 196.179 C 154.400 196.289,154.940 196.659,155.600 197.000 C 156.260 197.341,156.800 197.531,156.800 197.421 C 156.800 197.311,156.260 196.941,155.600 196.600 C 154.940 196.259,154.400 196.069,154.400 196.179 M158.000 198.367 C 158.963 199.152,159.600 199.408,159.600 199.010 C 159.600 198.906,159.015 198.535,158.300 198.186 L 157.000 197.552 158.000 198.367 M160.144 199.509 C 160.460 200.021,162.800 201.753,162.800 201.475 C 162.800 201.376,162.139 200.791,161.332 200.175 C 160.524 199.559,159.989 199.259,160.144 199.509 M85.744 200.309 C 86.060 200.821,88.400 202.553,88.400 202.275 C 88.400 202.176,87.739 201.591,86.932 200.975 C 86.124 200.359,85.589 200.059,85.744 200.309 M163.241 202.100 C 163.337 202.155,164.312 203.010,165.407 204.000 L 167.400 205.800 165.617 203.900 C 164.636 202.855,163.661 202.000,163.450 202.000 C 163.239 202.000,163.145 202.045,163.241 202.100 M228.305 241.180 C 228.247 258.549,228.333 272.627,228.495 272.465 C 228.882 272.078,229.090 209.600,228.705 209.600 C 228.542 209.600,228.362 223.811,228.305 241.180 M107.200 210.782 C 107.530 211.005,108.145 211.191,108.567 211.194 C 109.590 211.202,109.271 210.973,107.800 210.644 C 106.924 210.448,106.762 210.485,107.200 210.782 M117.000 213.181 C 117.768 213.529,119.910 213.756,119.567 213.453 C 119.475 213.372,118.680 213.196,117.800 213.062 C 116.685 212.893,116.442 212.929,117.000 213.181 M121.233 214.147 C 121.325 214.228,122.120 214.404,123.000 214.538 C 124.115 214.707,124.358 214.671,123.800 214.419 C 123.032 214.071,120.890 213.844,121.233 214.147 M124.833 214.947 C 124.925 215.028,125.720 215.204,126.600 215.338 C 127.715 215.507,127.958 215.471,127.400 215.219 C 126.632 214.871,124.490 214.644,124.833 214.947 M128.433 215.744 C 128.525 215.823,129.140 216.008,129.800 216.156 C 130.676 216.352,130.838 216.315,130.400 216.018 C 129.860 215.653,128.032 215.398,128.433 215.744 M141.241 220.670 C 141.263 220.851,142.201 221.810,143.324 222.800 C 144.796 224.097,145.095 224.261,144.394 223.389 C 143.263 221.982,141.181 220.187,141.241 220.670 M174.662 222.200 C 174.796 223.080,174.972 223.875,175.053 223.967 C 175.356 224.310,175.129 222.168,174.781 221.400 C 174.529 220.842,174.493 221.085,174.662 222.200 M175.400 231.800 C 175.400 235.295,175.514 237.625,175.653 236.977 C 175.792 236.330,175.905 234.000,175.905 231.800 C 175.905 229.600,175.792 227.270,175.653 226.623 C 175.514 225.975,175.400 228.305,175.400 231.800 M147.000 233.400 C 147.000 235.736,147.117 237.232,147.260 236.724 C 147.403 236.216,147.520 234.720,147.520 233.400 C 147.520 232.080,147.403 230.584,147.260 230.076 C 147.117 229.568,147.000 231.064,147.000 233.400 M83.371 231.700 C 81.102 234.185,80.262 235.200,80.470 235.200 C 80.586 235.200,81.619 234.120,82.767 232.800 C 84.962 230.277,85.403 229.473,83.371 231.700 M92.600 237.600 C 93.683 238.700,94.647 239.600,94.741 239.600 C 95.080 239.600,91.391 235.680,91.015 235.641 C 90.803 235.618,91.517 236.500,92.600 237.600 M76.198 240.159 C 75.979 240.466,75.383 241.276,74.873 241.959 C 73.502 243.794,74.009 243.465,75.735 241.400 C 76.563 240.410,77.095 239.600,76.918 239.600 C 76.741 239.600,76.417 239.851,76.198 240.159 M174.860 240.467 C 174.827 241.054,174.696 241.864,174.570 242.267 C 174.352 242.960,174.365 242.961,174.795 242.290 C 175.046 241.899,175.177 241.089,175.086 240.490 L 174.920 239.400 174.860 240.467 M96.000 240.525 C 96.000 240.624,96.661 241.209,97.468 241.825 C 98.276 242.441,98.811 242.741,98.656 242.491 C 98.340 241.979,96.000 240.247,96.000 240.525 M142.581 245.300 L 141.000 247.000 142.700 245.419 C 144.281 243.948,144.584 243.600,144.281 243.600 C 144.216 243.600,143.451 244.365,142.581 245.300 M72.159 245.300 C 70.407 247.321,69.887 248.000,70.090 248.000 C 70.207 248.000,70.967 247.190,71.779 246.200 C 73.281 244.366,73.579 243.663,72.159 245.300 M113.800 249.600 C 114.240 249.789,114.960 249.938,115.400 249.932 C 116.043 249.923,116.004 249.857,115.200 249.600 C 113.832 249.162,112.781 249.162,113.800 249.600 M134.200 249.600 C 133.696 249.817,133.622 249.944,134.000 249.944 C 134.330 249.944,134.960 249.789,135.400 249.600 C 135.904 249.383,135.978 249.256,135.600 249.256 C 135.270 249.256,134.640 249.411,134.200 249.600 M120.711 250.693 C 121.651 250.778,123.091 250.777,123.911 250.691 C 124.730 250.605,123.960 250.536,122.200 250.537 C 120.440 250.539,119.770 250.609,120.711 250.693 M126.691 250.689 C 127.401 250.777,128.661 250.779,129.491 250.692 C 130.321 250.605,129.740 250.533,128.200 250.531 C 126.660 250.529,125.981 250.600,126.691 250.689 M169.453 255.300 L 168.733 256.600 169.558 255.600 C 170.289 254.713,170.614 254.000,170.286 254.000 C 170.224 254.000,169.849 254.585,169.453 255.300 M75.800 257.600 C 77.328 259.140,78.669 260.400,78.779 260.400 C 78.889 260.400,77.728 259.140,76.200 257.600 C 74.672 256.060,73.331 254.800,73.221 254.800 C 73.111 254.800,74.272 256.060,75.800 257.600 M166.955 258.681 C 166.107 259.716,165.622 260.434,165.877 260.276 C 166.421 259.940,168.955 256.800,168.682 256.800 C 168.580 256.800,167.803 257.647,166.955 258.681 M79.200 260.533 C 79.200 260.643,79.920 261.303,80.800 262.000 C 81.680 262.697,82.400 263.177,82.400 263.067 C 82.400 262.957,81.680 262.297,80.800 261.600 C 79.920 260.903,79.200 260.423,79.200 260.533 M161.600 264.054 L 159.800 265.685 161.494 264.413 C 162.968 263.307,163.914 262.374,163.524 262.412 C 163.456 262.419,162.590 263.158,161.600 264.054 M155.900 267.829 C 154.405 268.640,154.496 268.978,156.000 268.200 C 156.660 267.859,157.200 267.494,157.200 267.390 C 157.200 267.132,157.157 267.147,155.900 267.829 M106.800 273.182 C 107.130 273.405,107.745 273.591,108.167 273.594 C 109.190 273.602,108.871 273.373,107.400 273.044 C 106.524 272.848,106.362 272.885,106.800 273.182 M141.200 273.200 C 140.376 273.464,140.341 273.526,141.000 273.554 C 141.440 273.573,142.070 273.413,142.400 273.200 C 143.101 272.747,142.614 272.747,141.200 273.200 M111.400 273.997 C 112.164 274.328,115.114 274.555,114.767 274.256 C 114.675 274.177,113.700 274.009,112.600 273.882 C 111.313 273.733,110.885 273.774,111.400 273.997 M136.200 274.000 L 134.600 274.286 136.000 274.315 C 136.770 274.331,137.760 274.189,138.200 274.000 C 139.143 273.595,138.462 273.595,136.200 274.000 M119.800 274.865 C 120.900 275.011,123.330 275.130,125.200 275.130 C 127.070 275.130,129.500 275.011,130.600 274.865 C 131.726 274.716,129.365 274.600,125.200 274.600 C 121.035 274.600,118.674 274.716,119.800 274.865 " stroke="none" fill="#9c9c9c" fill-rule="evenodd"></path><path id="path3" d="M290.588 160.200 C 290.588 174.280,290.639 179.982,290.700 172.871 C 290.761 165.760,290.761 154.240,290.700 147.271 C 290.638 140.302,290.588 146.120,290.588 160.200 M100.493 170.400 C 100.493 171.170,100.575 171.485,100.676 171.100 C 100.776 170.715,100.776 170.085,100.676 169.700 C 100.575 169.315,100.493 169.630,100.493 170.400 M290.590 241.200 C 290.590 258.470,290.640 265.535,290.700 256.900 C 290.760 248.265,290.760 234.135,290.700 225.500 C 290.640 216.865,290.590 223.930,290.590 241.200 " stroke="none" fill="#8c8c8c" fill-rule="evenodd"></path><path id="path4" d="M114.800 132.356 C 113.439 132.600,128.800 132.492,130.800 132.244 C 131.350 132.176,128.290 132.117,124.000 132.113 C 119.710 132.109,115.570 132.218,114.800 132.356 M132.705 132.683 C 133.202 132.779,133.922 132.775,134.305 132.675 C 134.687 132.575,134.280 132.496,133.400 132.501 C 132.520 132.505,132.207 132.587,132.705 132.683 M136.433 132.949 C 136.525 133.031,137.500 133.201,138.600 133.328 C 139.949 133.484,140.274 133.449,139.600 133.220 C 138.601 132.880,136.118 132.668,136.433 132.949 M105.400 134.000 C 104.896 134.217,104.822 134.344,105.200 134.344 C 105.530 134.344,106.160 134.189,106.600 134.000 C 107.104 133.783,107.178 133.656,106.800 133.656 C 106.470 133.656,105.840 133.811,105.400 134.000 M142.200 134.000 C 142.640 134.189,143.270 134.344,143.600 134.344 C 143.978 134.344,143.904 134.217,143.400 134.000 C 142.960 133.811,142.330 133.656,142.000 133.656 C 141.622 133.656,141.696 133.783,142.200 134.000 M201.045 134.627 C 200.910 134.978,200.844 166.166,200.898 203.933 L 200.997 272.600 201.198 203.600 L 201.400 134.600 214.700 134.495 L 228.000 134.389 228.000 160.152 C 228.000 183.275,228.065 185.939,228.633 186.157 C 229.556 186.511,290.319 186.455,290.538 186.100 C 290.640 185.935,276.746 185.800,259.662 185.800 L 228.600 185.800 228.400 160.000 L 228.200 134.200 214.745 134.095 C 202.736 134.001,201.263 134.058,201.045 134.627 M304.100 134.297 L 317.600 134.411 317.600 203.400 L 317.600 272.389 304.200 272.503 L 290.800 272.616 304.300 272.608 L 317.800 272.600 317.800 203.400 L 317.800 134.200 304.200 134.192 L 290.600 134.184 304.100 134.297 M85.038 144.442 C 83.364 146.005,81.614 147.850,81.148 148.542 C 80.669 149.254,81.024 148.983,81.967 147.918 C 82.883 146.882,84.750 145.038,86.116 143.820 C 87.482 142.601,88.483 141.603,88.341 141.602 C 88.198 141.601,86.712 142.879,85.038 144.442 M166.397 145.694 C 167.759 146.845,169.119 148.240,169.420 148.794 C 169.797 149.487,169.973 149.595,169.984 149.141 C 169.999 148.534,164.855 143.600,164.207 143.600 C 164.050 143.600,165.035 144.542,166.397 145.694 M78.953 151.700 C 77.576 154.036,77.486 154.235,78.187 153.400 C 79.000 152.432,79.700 151.200,79.438 151.200 C 79.333 151.200,79.115 151.425,78.953 151.700 M167.375 152.668 C 166.759 153.476,166.459 154.011,166.709 153.856 C 167.221 153.540,168.953 151.200,168.675 151.200 C 168.576 151.200,167.991 151.861,167.375 152.668 M120.300 155.498 C 122.115 155.572,125.085 155.572,126.900 155.498 C 128.715 155.423,127.230 155.363,123.600 155.363 C 119.970 155.363,118.485 155.423,120.300 155.498 M112.400 156.418 C 111.962 156.715,112.124 156.752,113.000 156.556 C 114.471 156.227,114.790 155.998,113.767 156.006 C 113.345 156.009,112.730 156.195,112.400 156.418 M132.833 156.143 C 132.925 156.221,133.630 156.401,134.400 156.542 C 135.385 156.723,135.622 156.682,135.200 156.406 C 134.658 156.050,132.437 155.803,132.833 156.143 M103.726 161.300 C 103.050 162.015,102.291 163.050,102.040 163.600 C 101.650 164.454,101.658 164.488,102.092 163.832 C 102.371 163.409,103.206 162.374,103.947 161.532 C 105.587 159.666,105.430 159.500,103.726 161.300 M161.544 160.700 C 160.393 162.089,159.906 162.800,160.104 162.800 C 160.214 162.800,160.786 162.170,161.373 161.400 C 162.463 159.971,162.595 159.432,161.544 160.700 M74.846 161.267 C 74.821 161.634,74.696 162.264,74.570 162.667 C 74.352 163.362,74.363 163.363,74.797 162.687 C 75.048 162.296,75.173 161.666,75.073 161.287 C 74.911 160.668,74.888 160.666,74.846 161.267 M150.800 164.102 C 150.800 164.946,154.304 167.581,155.438 167.590 C 156.597 167.599,158.000 166.608,158.000 165.780 C 158.000 165.583,157.720 165.822,157.377 166.311 C 156.339 167.794,154.535 167.499,152.515 165.517 C 151.572 164.591,150.800 163.954,150.800 164.102 M73.857 167.259 C 73.546 170.232,73.577 173.896,73.935 176.600 C 74.089 177.760,74.200 175.702,74.200 171.700 C 74.200 163.876,74.204 163.934,73.857 167.259 M100.070 170.200 C 100.057 170.640,100.195 171.720,100.377 172.600 C 100.655 173.945,100.708 174.009,100.707 173.000 C 100.705 171.599,100.108 168.970,100.070 170.200 M102.276 178.312 C 102.667 179.034,103.612 180.204,104.377 180.912 L 105.766 182.200 104.383 180.596 C 103.622 179.714,102.677 178.544,102.283 177.996 C 101.591 177.035,101.590 177.046,102.276 178.312 M74.644 181.000 C 74.973 182.471,75.202 182.790,75.194 181.767 C 75.191 181.345,75.005 180.730,74.782 180.400 C 74.485 179.962,74.448 180.124,74.644 181.000 M115.600 186.400 C 115.930 186.613,116.470 186.788,116.800 186.788 C 117.333 186.788,117.333 186.745,116.800 186.400 C 116.470 186.187,115.930 186.012,115.600 186.012 C 115.067 186.012,115.067 186.055,115.600 186.400 M119.200 187.182 C 119.530 187.405,120.145 187.591,120.567 187.594 C 121.590 187.602,121.271 187.373,119.800 187.044 C 118.924 186.848,118.762 186.885,119.200 187.182 M122.800 188.000 C 123.130 188.213,123.760 188.378,124.200 188.366 L 125.000 188.344 124.200 188.000 C 123.004 187.486,122.005 187.486,122.800 188.000 M126.800 188.782 C 127.130 189.005,127.745 189.191,128.167 189.194 C 129.190 189.202,128.871 188.973,127.400 188.644 C 126.524 188.448,126.362 188.485,126.800 188.782 M130.600 189.600 C 131.040 189.789,131.760 189.938,132.200 189.932 C 132.843 189.923,132.804 189.857,132.000 189.600 C 130.632 189.162,129.581 189.162,130.600 189.600 M134.400 190.382 C 134.730 190.605,135.345 190.791,135.767 190.794 C 136.790 190.802,136.471 190.573,135.000 190.244 C 134.124 190.048,133.962 190.085,134.400 190.382 M138.000 191.182 C 138.330 191.405,138.945 191.591,139.367 191.594 C 140.390 191.602,140.071 191.373,138.600 191.044 C 137.724 190.848,137.562 190.885,138.000 191.182 M150.800 194.989 C 150.800 195.306,153.700 196.433,153.928 196.205 C 154.041 196.092,154.035 196.000,153.916 196.000 C 153.796 196.000,153.046 195.728,152.249 195.395 C 151.452 195.062,150.800 194.879,150.800 194.989 M82.034 196.247 C 82.565 196.933,83.080 197.423,83.179 197.335 C 83.277 197.247,82.843 196.686,82.213 196.088 L 81.069 195.000 82.034 196.247 M154.400 196.584 C 154.400 196.694,155.120 197.151,156.000 197.600 C 156.880 198.049,157.600 198.326,157.600 198.216 C 157.600 198.106,156.880 197.649,156.000 197.200 C 155.120 196.751,154.400 196.474,154.400 196.584 M83.634 197.900 C 83.652 198.065,84.417 198.822,85.334 199.582 L 87.000 200.963 85.419 199.282 C 83.793 197.552,83.576 197.384,83.634 197.900 M88.325 201.953 C 89.054 202.584,90.584 203.579,91.725 204.164 C 93.939 205.299,93.754 205.152,89.637 202.503 C 87.808 201.326,87.406 201.158,88.325 201.953 M164.800 203.800 C 165.546 204.570,166.247 205.200,166.357 205.200 C 166.467 205.200,165.946 204.570,165.200 203.800 C 164.454 203.030,163.753 202.400,163.643 202.400 C 163.533 202.400,164.054 203.030,164.800 203.800 M228.267 209.467 C 228.120 209.613,228.000 223.831,228.000 241.061 L 228.000 272.389 214.900 272.503 L 201.800 272.616 215.000 272.608 L 228.200 272.600 228.302 241.095 L 228.405 209.590 259.602 209.695 C 276.761 209.753,290.800 209.665,290.800 209.500 C 290.800 209.129,228.637 209.096,228.267 209.467 M113.400 212.000 C 114.596 212.514,115.595 212.514,114.800 212.000 C 114.470 211.787,113.840 211.622,113.400 211.634 L 112.600 211.656 113.400 212.000 M117.000 212.800 C 117.440 212.989,118.070 213.144,118.400 213.144 C 118.778 213.144,118.704 213.017,118.200 212.800 C 117.760 212.611,117.130 212.456,116.800 212.456 C 116.422 212.456,116.496 212.583,117.000 212.800 M127.400 215.200 C 127.840 215.389,128.470 215.544,128.800 215.544 C 129.178 215.544,129.104 215.417,128.600 215.200 C 128.160 215.011,127.530 214.856,127.200 214.856 C 126.822 214.856,126.896 214.983,127.400 215.200 M130.600 216.000 C 131.040 216.189,131.670 216.344,132.000 216.344 C 132.378 216.344,132.304 216.217,131.800 216.000 C 131.360 215.811,130.730 215.656,130.400 215.656 C 130.022 215.656,130.096 215.783,130.600 216.000 M173.206 217.833 C 173.209 218.255,173.395 218.870,173.618 219.200 C 173.915 219.638,173.952 219.476,173.756 218.600 C 173.427 217.129,173.198 216.810,173.206 217.833 M140.600 219.857 C 142.637 221.664,143.387 222.191,142.602 221.263 C 142.166 220.748,141.447 220.141,141.004 219.914 C 140.562 219.687,140.380 219.662,140.600 219.857 M174.028 220.833 C 174.044 221.365,174.219 222.160,174.419 222.600 C 174.671 223.158,174.707 222.915,174.538 221.800 C 174.255 219.943,173.987 219.436,174.028 220.833 M175.000 231.800 C 175.000 236.138,175.112 238.456,175.260 237.200 C 175.404 235.990,175.521 233.560,175.521 231.800 C 175.521 230.040,175.404 227.610,175.260 226.400 C 175.112 225.144,175.000 227.462,175.000 231.800 M146.020 225.600 C 146.016 225.710,146.271 226.520,146.588 227.400 C 146.905 228.280,147.166 228.640,147.168 228.200 C 147.171 227.535,146.045 224.985,146.020 225.600 M85.912 230.817 C 86.413 231.018,87.223 231.601,87.712 232.111 C 88.361 232.790,88.441 232.819,88.010 232.220 C 87.135 231.006,86.325 230.397,85.624 230.425 C 85.242 230.441,85.354 230.593,85.912 230.817 M147.714 233.400 C 147.717 234.500,147.795 234.903,147.887 234.295 C 147.979 233.686,147.977 232.786,147.882 232.295 C 147.787 231.803,147.711 232.300,147.714 233.400 M92.400 237.800 C 93.146 238.570,93.847 239.200,93.957 239.200 C 94.067 239.200,93.546 238.570,92.800 237.800 C 92.054 237.030,91.353 236.400,91.243 236.400 C 91.133 236.400,91.654 237.030,92.400 237.800 M78.001 238.598 C 77.486 239.148,77.139 239.664,77.232 239.746 C 77.324 239.828,77.819 239.378,78.330 238.747 C 79.476 237.335,79.274 237.244,78.001 238.598 M146.732 238.800 C 146.606 239.350,146.378 240.160,146.226 240.600 C 146.074 241.040,146.242 240.895,146.599 240.277 C 146.957 239.659,147.185 238.849,147.105 238.477 C 147.002 237.994,146.895 238.087,146.732 238.800 M75.008 242.300 C 74.149 243.345,73.860 243.840,74.366 243.400 C 75.261 242.622,76.998 240.400,76.712 240.400 C 76.634 240.400,75.867 241.255,75.008 242.300 M96.269 241.325 C 97.858 242.624,100.000 244.089,100.000 243.875 C 100.000 243.637,95.703 240.400,95.386 240.400 C 95.250 240.400,95.647 240.816,96.269 241.325 M174.249 241.415 C 174.112 241.773,174.018 242.456,174.041 242.933 C 174.067 243.481,174.203 243.286,174.410 242.403 C 174.760 240.916,174.665 240.333,174.249 241.415 M142.800 245.313 C 141.810 246.244,140.550 247.328,140.000 247.721 C 139.036 248.409,139.047 248.409,140.303 247.729 C 141.439 247.115,145.277 243.584,144.783 243.609 C 144.682 243.614,143.790 244.381,142.800 245.313 M101.000 244.606 C 101.895 245.341,105.227 247.103,104.600 246.510 C 104.380 246.302,103.300 245.641,102.200 245.041 C 101.100 244.441,100.560 244.245,101.000 244.606 M106.000 247.366 C 106.550 247.660,107.450 248.012,108.000 248.149 C 108.550 248.286,108.280 248.052,107.400 247.629 C 105.590 246.758,104.468 246.548,106.000 247.366 M112.200 249.600 C 112.640 249.789,113.270 249.944,113.600 249.944 C 113.978 249.944,113.904 249.817,113.400 249.600 C 112.960 249.411,112.330 249.256,112.000 249.256 C 111.622 249.256,111.696 249.383,112.200 249.600 M116.000 250.400 C 116.550 250.576,117.450 250.717,118.000 250.713 C 118.898 250.706,118.878 250.674,117.800 250.400 C 116.108 249.969,114.656 249.969,116.000 250.400 M132.000 250.400 C 131.196 250.657,131.157 250.723,131.800 250.732 C 132.240 250.738,132.960 250.589,133.400 250.400 C 134.419 249.962,133.368 249.962,132.000 250.400 M171.265 251.017 C 170.595 252.488,170.723 252.802,171.447 251.465 C 171.786 250.840,171.988 250.254,171.896 250.163 C 171.805 250.071,171.521 250.456,171.265 251.017 M123.300 251.094 C 124.345 251.176,126.055 251.176,127.100 251.094 C 128.145 251.012,127.290 250.944,125.200 250.944 C 123.110 250.944,122.255 251.012,123.300 251.094 M75.885 257.197 C 77.252 258.608,78.428 259.681,78.498 259.581 C 78.567 259.482,77.449 258.327,76.012 257.015 L 73.400 254.631 75.885 257.197 M164.189 261.300 L 161.400 264.200 164.300 261.411 C 166.994 258.820,167.383 258.400,167.089 258.400 C 167.028 258.400,165.723 259.705,164.189 261.300 M82.200 262.601 C 83.374 263.619,85.600 264.972,85.600 264.667 C 85.600 264.582,84.565 263.849,83.300 263.037 C 81.747 262.040,81.390 261.899,82.200 262.601 M159.600 265.249 C 158.206 266.471,158.205 266.472,159.488 265.619 C 160.196 265.148,160.882 264.591,161.012 264.381 C 161.397 263.757,161.077 263.954,159.600 265.249 M150.000 270.216 C 148.790 270.737,148.070 271.160,148.400 271.157 C 148.730 271.154,149.900 270.727,151.000 270.209 C 153.599 268.985,152.850 268.990,150.000 270.216 M98.800 270.741 C 99.130 270.934,99.940 271.209,100.600 271.352 C 101.368 271.518,101.584 271.484,101.200 271.259 C 100.870 271.066,100.060 270.791,99.400 270.648 C 98.632 270.482,98.416 270.516,98.800 270.741 M144.800 272.018 C 144.362 272.315,144.524 272.352,145.400 272.156 C 146.871 271.827,147.190 271.598,146.167 271.606 C 145.745 271.609,145.130 271.795,144.800 272.018 M110.100 273.476 C 110.485 273.576,111.115 273.576,111.500 273.476 C 111.885 273.375,111.570 273.293,110.800 273.293 C 110.030 273.293,109.715 273.375,110.100 273.476 M138.100 273.476 C 138.485 273.576,139.115 273.576,139.500 273.476 C 139.885 273.375,139.570 273.293,138.800 273.293 C 138.030 273.293,137.715 273.375,138.100 273.476 M117.312 274.295 C 118.364 274.377,119.984 274.376,120.912 274.292 C 121.840 274.208,120.980 274.141,119.000 274.142 C 117.020 274.143,116.260 274.212,117.312 274.295 M129.312 274.295 C 130.364 274.377,131.984 274.376,132.912 274.292 C 133.840 274.208,132.980 274.141,131.000 274.142 C 129.020 274.143,128.260 274.212,129.312 274.295 M124.105 274.687 C 124.714 274.779,125.614 274.777,126.105 274.682 C 126.597 274.587,126.100 274.511,125.000 274.514 C 123.900 274.517,123.497 274.595,124.105 274.687 " stroke="none" fill="#848484" fill-rule="evenodd"></path></g></svg>